<?xml version="1.0" standalone="no"?><!DOCTYPE svg PUBLIC "-//W3C//DTD SVG 1.1//EN" "http://www.w3.org/Graphics/SVG/1.1/DTD/svg11.dtd"><svg t="1556639330400" class="icon" style="" viewBox="0 0 1024 1024" version="1.1" xmlns="http://www.w3.org/2000/svg" p-id="1149" xmlns:xlink="http://www.w3.org/1999/xlink" width="200" height="200"><defs><style type="text/css"></style></defs><path d="M384.09987406 471.98115408c2.57739766-0.89270248 7.64945211-2.69649428 12.54401077-4.85642685 1.26733455-0.56351517 2.51638673-1.25740984 4.95316675-2.64415445a11.39545944 11.39545944 0 0 0 3.9636199-3.04114328 8.70700941 8.70700941 0 0 0 1.27736377-2.40836399V417.41942925c-0.01002918-2.59411297-2.11145814-4.6944972-4.70588453-4.70567558-0.97575673 0.16433248-2.37775406 0.43971736-4.0489725 0.89249353 2.55316043 6.51960105 1.89572606 13.86410306-1.77819647 19.82771085-3.60403162 5.84963019-9.7032424 9.68569132-16.51661518 10.44623832-0.1332002 0.01431249-0.26107239 0.04836994-0.39448151 0.06111536v23.33395783c0.01149179 2.59453086 2.11166708 4.69428827 4.705989 4.70588452zM370.07112509 471.98115408c2.5943219-0.01128284 4.69481062-2.11135367 4.705989-4.70609346V443.9025531a22.3103535 22.3103535 0 0 1-16.5885955-10.59970586c-3.58930123-5.91220815-4.23054264-13.1558959-1.73996019-19.6088446a44.27281944 44.27281944 0 0 0-4.47897406-0.99059157c-2.5943219 0.01023814-4.69470614 2.11177156-4.70609348 4.70609347v41.61153179a8.64474485 8.64474485 0 0 0 1.27893082 2.4069014c1.09694278 1.30839156 2.47637443 2.35006931 4.03163034 3.05253057 2.48650811 1.38664014 3.73545581 2.09056401 4.95442042 2.64425893 4.89340949 2.15972361 9.96703102 3.96382884 12.54265264 4.85642685z" fill="#f26552" p-id="1150"></path><path d="M408.32360917 468.55242438a5.95483222 5.95483222 0 0 0 3.43907232-1.17790761 5.63870377 5.63870377 0 0 0 1.81183605-2.84432039V422.91730647c-0.00689507-2.40846847-1.83325255-4.42224646-4.2303337-4.66639459 0.05516054 0.27528039 0.08514365 0.55338152 0.08932248 0.83304968v41.61163627a8.66219148 8.66219148 0 0 1-1.27736375 2.40669245 11.34573138 11.34573138 0 0 1-3.96372436 3.04281481c-2.39697668 1.33712101-3.63610413 2.02965755-4.86499346 2.58585977 1.30880946 0.00031342 5.19282263 0.07950223 8.99618442-0.17854048zM345.26245829 418.27097028c-2.38830561 0.24393918-4.21194685 2.24507621-4.23054263 4.64633618V464.53040532a5.62909245 5.62909245 0 0 0 1.813821 2.86249829 5.94438515 5.94438515 0 0 0 3.43729631 1.17957913c3.80492885 0.25814721 7.68747946 0.20726994 8.99618442 0.17874943-1.2289938-0.55620222-2.46655418-1.24926111-4.86468004-2.58575528a11.34520902 11.34520902 0 0 1-3.96236624-3.04302374 8.64881922 8.64881922 0 0 1-1.27893082-2.40658798V419.10381101c0.0042833-0.27956371 0.03416193-0.55766482 0.089218-0.83284073z" fill="#f26552" p-id="1151"></path><path d="M396.3047728 433.43354016c3.67444489-5.96350329 4.33167033-13.30779637 1.77840542-19.82771084-0.00073129-0.00271625-0.00167153-0.00689507-0.00302965-0.01002918-5.37992974 1.45621765-13.35595738 4.75425447-17.30808549 12.24470213a19.75876012 19.75876012 0 0 0-1.38820722 3.32948249v14.77090909c0.13654327-0.0128499 0.26838534-0.04669842 0.40451071-0.06111538 6.81337277-0.76054699 12.91237461-4.5967126 16.51640623-10.44623832zM356.48846621 413.69389816c-2.4907914 6.45305319-1.84923658 13.69663645 1.73828865 19.60884463 3.58930123 5.91387968 9.71713699 9.82902517 16.58995363 10.59970583h0.01034261v-14.73246385a19.88966197 19.88966197 0 0 0-1.38664015-3.3294825c-3.86426821-7.32120503-11.58173078-10.64086729-16.95194474-12.14660411z" fill="#f26552" p-id="1152"></path><path d="M529.10400001 527.85333334v223.357c0.105 24.83 20.215 44.938 45.05 45.046 24.668-8.544 73.218-25.811 120.071-46.488 12.127-5.392 24.086-12.036 47.409-25.306a109.116 109.116 0 0 0 37.941-29.114 83.408 83.408 0 0 0 12.225-23.051v-398.31c-0.092-24.833-20.21-44.938-45.045-45.047-9.481 1.602-23.134 4.265-39.446 8.723 24.355 62.297 18.091 132.42-16.915 189.423a213.388 213.388 0 0 1-161.29 100.767zM266.60100001 228.84633334c-24.833 0.094-44.939 20.214-45.048 45.045v398.31a82.678 82.678 0 0 0 12.24 23.039c10.502 12.524 23.708 22.493 38.595 29.22 23.799 13.271 35.753 20.013 47.422 25.307 46.841 20.677 95.404 37.944 120.062 46.488 24.831-0.109 44.938-20.216 45.045-45.046v-223.72c-65.791-7.377-124.448-44.86-158.79-101.463-34.354-56.591-40.496-125.93-16.655-187.696a423.057 423.057 0 0 0-42.871-9.484z" fill="#f26552" p-id="1153"></path><path d="M804.42200001 711.27033334a108.626 108.626 0 0 1-37.943 29.126c-22.944 12.796-34.805 19.428-46.567 24.75 12.526 0 49.702 0.765 86.112-1.71a56.988 56.988 0 0 0 32.916-11.274 54.009 54.009 0 0 0 17.346-27.228v-398.32c-0.069-23.053-17.552-42.328-40.496-44.667 0.529 2.635 0.815 5.299 0.855 7.974v398.31a83.035 83.035 0 0 1-12.223 23.039zM202.39900001 282.13733334c-22.863 2.338-40.319 21.491-40.496 44.477v398.323a53.886 53.886 0 0 0 17.361 27.4 56.879 56.879 0 0 0 32.901 11.291c36.419 2.471 73.587 1.983 86.111 1.708-11.764-5.323-23.608-11.953-46.566-24.75a108.578 108.578 0 0 1-37.928-29.124 82.698 82.698 0 0 1-12.238-23.039V290.11233334c0.039-2.675 0.326-5.338 0.855-7.975z" fill="#f26552" p-id="1154"></path><path d="M771.97 280.058c-51.497 13.939-127.844 45.508-165.675 117.207a188.947 188.947 0 0 0-13.289 31.871v141.386c66.797-6.206 126.786-43.472 161.969-100.58 35.184-57.11 41.473-127.45 16.995-189.884z" fill="#f26552" p-id="1155"></path><path d="M707.97000001 237.39133334c-51.497 13.939-127.844 45.508-165.675 117.207a188.947 188.947 0 0 0-13.289 31.871v141.386c66.797-6.206 126.786-43.472 161.969-100.58 35.184-57.11 41.473-127.45 16.995-189.884z" fill="#f26552" p-id="1156"></path><path d="M485.29400001 548.82166667h0.095V407.79866667a189.948 189.948 0 0 0-13.271-31.871c-36.992-70.081-110.863-101.856-162.266-116.268-23.839 61.769-17.701 131.105 16.642 187.696 34.352 56.608 93.012 94.089 158.8 101.466z" fill="#f26552" p-id="1157"></path><path d="M485.29400001 527.48833334h0.095V386.46533334a189.948 189.948 0 0 0-13.271-31.871c-36.992-70.081-110.863-101.856-162.266-116.268-23.839 61.769-17.701 131.105 16.642 187.696 34.352 56.608 93.012 94.089 158.8 101.466z" fill="#f26552" p-id="1158"></path></svg>